<svg version="1.1" viewBox="0.0 0.0 100.0 100.0" fill="none" stroke="none" stroke-linecap="square" stroke-miterlimit="10" xmlns:xlink="http://www.w3.org/1999/xlink" xmlns="http://www.w3.org/2000/svg"><clipPath id="p.0"><path d="m0 0l100.0 0l0 100.0l-100.0 0l0 -100.0z" clip-rule="nonzero"/></clipPath><g clip-path="url(#p.0)"><path fill="#000000" fill-opacity="0.0" d="m0 0l100.0 0l0 100.0l-100.0 0z" fill-rule="evenodd"/><path fill="#ffc6b8" d="m50.820328 41.07349l32.09449 0l0 8.251968l-32.09449 0z" fill-rule="evenodd"/><path stroke="#ff724f" stroke-width="1.0" stroke-linejoin="round" stroke-linecap="butt" d="m50.820328 41.07349l32.09449 0l0 8.251968l-32.09449 0z" fill-rule="evenodd"/><path fill="#ffc6b8" d="m50.820328 31.08399l16.18898 0l0 8.251966l-16.18898 0z" fill-rule="evenodd"/><path stroke="#ff724f" stroke-width="1.0" stroke-linejoin="round" stroke-linecap="butt" d="m50.820328 31.08399l16.18898 0l0 8.251966l-16.18898 0z" fill-rule="evenodd"/><path fill="#ffc6b8" d="m50.748814 21.094488l8.157478 0l0 8.251968l-8.157478 0z" fill-rule="evenodd"/><path stroke="#ff724f" stroke-width="1.0" stroke-linejoin="round" stroke-linecap="butt" d="m50.748814 21.094488l8.157478 0l0 8.251968l-8.157478 0z" fill-rule="evenodd"/><path fill="#ffc6b8" d="m50.74881 59.314304l-32.09449 0l0 -8.251968l32.09449 0z" fill-rule="evenodd"/><path stroke="#ff724f" stroke-width="1.0" stroke-linejoin="round" stroke-linecap="butt" d="m50.74881 59.314304l-32.09449 0l0 -8.251968l32.09449 0z" fill-rule="evenodd"/><path fill="#ffc6b8" d="m50.74881 69.3038l-16.188976 0l0 -8.251965l16.188976 0z" fill-rule="evenodd"/><path stroke="#ff724f" stroke-width="1.0" stroke-linejoin="round" stroke-linecap="butt" d="m50.74881 69.3038l-16.188976 0l0 -8.251965l16.188976 0z" fill-rule="evenodd"/><path fill="#ffc6b8" d="m50.820324 79.293304l-8.157478 0l0 -8.251968l8.157478 0z" fill-rule="evenodd"/><path stroke="#ff724f" stroke-width="1.0" stroke-linejoin="round" stroke-linecap="butt" d="m50.820324 79.293304l-8.157478 0l0 -8.251968l8.157478 0z" fill-rule="evenodd"/></g></svg>