<svg version="1.1" viewBox="0.0 0.0 181.1784776902887 150.28871391076115" fill="none" stroke="none" stroke-linecap="square" stroke-miterlimit="10" xmlns:xlink="http://www.w3.org/1999/xlink" xmlns="http://www.w3.org/2000/svg"><clipPath id="p.0"><path d="m0 0l181.17848 0l0 150.28871l-181.17848 0l0 -150.28871z" clip-rule="nonzero"/></clipPath><g clip-path="url(#p.0)"><path fill="#000000" fill-opacity="0.0" d="m0 0l181.17848 0l0 150.28871l-181.17848 0z" fill-rule="evenodd"/><path fill="#ffc6b8" d="m54.3225 35.509354l73.6378 0l0 -3.1023598l6.204727 6.2047234l-6.204727 6.2047234l0 -3.1023598l-73.6378 0z" fill-rule="evenodd"/><path stroke="#ff724f" stroke-width="1.0" stroke-linejoin="round" stroke-linecap="butt" d="m54.3225 35.509354l73.6378 0l0 -3.1023598l6.204727 6.2047234l-6.204727 6.2047234l0 -3.1023598l-73.6378 0z" fill-rule="evenodd"/><path fill="#000000" fill-opacity="0.0" d="m4.459477 4.571975l53.952755 0l0 90.362206l-53.952755 0z" fill-rule="evenodd"/><path fill="#ff4400" d="m28.209476 63.73073q-0.03125 -1.125 -0.03125 -1.6875q0 -3.3125 0.9375 -5.71875q0.6875 -1.8125 2.21875 -3.65625q1.125 -1.34375 4.046875 -3.921875q2.921875 -2.578125 3.796875 -4.109375q0.875 -1.53125 0.875 -3.34375q0 -3.28125 -2.5625 -5.765625q-2.5625 -2.484375 -6.28125 -2.484375q-3.59375 0 -6.0 2.25q-2.40625 2.25 -3.15625 7.03125l-5.78125 -0.6875q0.78125 -6.40625 4.640625 -9.8125q3.859375 -3.40625 10.203125 -3.40625q6.71875 0 10.71875 3.65625q4.0 3.65625 4.0 8.84375q0 3.0 -1.40625 5.53125q-1.40625 2.53125 -5.5 6.15625q-2.75 2.4375 -3.59375 3.59375q-0.84375 1.15625 -1.25 2.65625q-0.40625 1.5 -0.46875 4.875l-5.40625 0zm-0.34375 11.28125l0 -6.40625l6.40625 0l0 6.40625l-6.40625 0z" fill-rule="nonzero"/><path fill="#000000" fill-opacity="0.0" d="m128.79655 9.699845l41.007874 0l0 64.44095l-41.007874 0z" fill-rule="evenodd"/><path fill="#ff4400" d="m147.7653 61.224842l0 -3.515625q-2.640625 -0.328125 -4.296875 -1.171875q-1.640625 -0.859375 -2.84375 -2.75q-1.203125 -1.90625 -1.40625 -4.640625l3.546875 -0.65625q0.40625 2.828125 1.4375 4.15625q1.484375 1.875 3.5625 2.09375l0 -11.203125q-2.171875 -0.40625 -4.4375 -1.671875q-1.6875 -0.9375 -2.59375 -2.59375q-0.90625 -1.671875 -0.90625 -3.78125q0 -3.75 2.65625 -6.0625q1.78125 -1.5625 5.28125 -1.921875l0 -1.671875l2.0625 0l0 1.671875q3.0625 0.296875 4.859375 1.796875q2.3125 1.921875 2.78125 5.25l-3.640625 0.546875q-0.3125 -2.0625 -1.296875 -3.15625q-0.984375 -1.109375 -2.703125 -1.46875l0 10.140625q2.65625 0.65625 3.515625 1.03125q1.640625 0.71875 2.671875 1.765625q1.046875 1.03125 1.59375 2.453125q0.5625 1.421875 0.5625 3.09375q0 3.640625 -2.328125 6.09375q-2.328125 2.4375 -6.015625 2.609375l0 3.5625l-2.0625 0zm0 -30.78125q-2.0625 0.3125 -3.25 1.640625q-1.171875 1.328125 -1.171875 3.140625q0 1.796875 1.0 3.015625q1.015625 1.203125 3.421875 1.921875l0 -9.71875zm2.0625 24.296875q2.046875 -0.265625 3.390625 -1.78125q1.34375 -1.53125 1.34375 -3.765625q0 -1.921875 -0.953125 -3.078125q-0.953125 -1.171875 -3.78125 -2.078125l0 10.703125z" fill-rule="nonzero"/><path fill="#ffc6b8" d="m134.16502 53.37634l-73.6378 0l0 3.1023598l-6.2047234 -6.2047234l6.2047234 -6.2047234l0 3.1023598l73.6378 0z" fill-rule="evenodd"/><path stroke="#ff724f" stroke-width="1.0" stroke-linejoin="round" stroke-linecap="butt" d="m134.16502 53.37634l-73.6378 0l0 3.1023598l-6.2047234 -6.2047234l6.2047234 -6.2047234l0 3.1023598l73.6378 0z" fill-rule="evenodd"/><path fill="#ffc6b8" d="m53.764107 59.17641l64.08009 36.28107l1.5275574 -2.7007904l2.3451004 8.459091l-8.455338 2.3440628l1.527565 -2.7007904l-64.08009 -36.281067z" fill-rule="evenodd"/><path stroke="#ff724f" stroke-width="1.0" stroke-linejoin="round" stroke-linecap="butt" d="m53.764107 59.17641l64.08009 36.28107l1.5275574 -2.7007904l2.3451004 8.459091l-8.455338 2.3440628l1.527565 -2.7007904l-64.08009 -36.281067z" fill-rule="evenodd"/><path fill="#ffc6b8" d="m113.990814 114.68758l-63.435528 -37.381645l-1.5748062 2.6771622l-2.2022629 -8.50811l8.501476 -2.200554l-1.5748024 2.6771698l63.435528 37.381653z" fill-rule="evenodd"/><path stroke="#ff724f" stroke-width="1.0" stroke-linejoin="round" stroke-linecap="butt" d="m113.990814 114.68758l-63.435528 -37.381645l-1.5748062 2.6771622l-2.2022629 -8.50811l8.501476 -2.200554l-1.5748024 2.6771698l63.435528 37.381653z" fill-rule="evenodd"/><path fill="#000000" fill-opacity="0.0" d="m114.20449 80.96739l41.007866 0l0 64.44095l-41.007866 0z" fill-rule="evenodd"/><path fill="#ff4400" d="m133.17323 132.49239l0 -3.515625q-2.640625 -0.328125 -4.296875 -1.1718674q-1.6406174 -0.859375 -2.8437424 -2.75q-1.203125 -1.90625 -1.40625 -4.640625l3.5468674 -0.65625q0.40625 2.828125 1.4375 4.15625q1.484375 1.875 3.5625 2.09375l0 -11.203125q-2.171875 -0.40625 -4.4375 -1.671875q-1.6874924 -0.9375 -2.5937424 -2.59375q-0.90625 -1.671875 -0.90625 -3.78125q0 -3.75 2.65625 -6.0625q1.7812424 -1.5625 5.2812424 -1.921875l0 -1.671875l2.0625 0l0 1.671875q3.0625 0.296875 4.859375 1.796875q2.3125 1.921875 2.78125 5.25l-3.640625 0.546875q-0.3125 -2.0625 -1.296875 -3.15625q-0.984375 -1.109375 -2.703125 -1.46875l0 10.140625q2.65625 0.65625 3.515625 1.03125q1.640625 0.71875 2.671875 1.765625q1.046875 1.03125 1.59375 2.453125q0.5625 1.421875 0.5625 3.09375q0 3.640625 -2.328125 6.09375q-2.328125 2.4374924 -6.015625 2.6093674l0 3.5625l-2.0625 0zm0 -30.781242q-2.0625 0.3125 -3.25 1.640625q-1.171875 1.328125 -1.171875 3.140625q0 1.796875 1.0 3.015625q1.015625 1.203125 3.421875 1.921875l0 -9.71875zm2.0625 24.296875q2.046875 -0.265625 3.390625 -1.78125q1.34375 -1.53125 1.34375 -3.765625q0 -1.921875 -0.953125 -3.078125q-0.953125 -1.171875 -3.78125 -2.078125l0 10.703125z" fill-rule="nonzero"/></g></svg>